<mxfile host="app.diagrams.net" agent="Mozilla/5.0 (Windows NT 10.0; Win64; x64) AppleWebKit/537.36 (KHTML, like Gecko) Chrome/130.0.0.0 Safari/537.36" version="24.8.2">
  <diagram id="R2lEEEUBdFMjLlhIrx00" name="Page-1">
    <mxGraphModel grid="1" page="1" gridSize="10" guides="1" tooltips="1" connect="1" arrows="1" fold="1" pageScale="1" pageWidth="850" pageHeight="1100" math="0" shadow="0" extFonts="Permanent Marker^https://fonts.googleapis.com/css?family=Permanent+Marker">
      <root>
        <mxCell id="0" />
        <mxCell id="1" parent="0" />
        <mxCell id="LZcYpCQEfp5MSJWrEunI-1" value="animales" style="rounded=0;whiteSpace=wrap;html=1;" vertex="1" parent="1">
          <mxGeometry x="140" y="455" width="120" height="60" as="geometry" />
        </mxCell>
        <mxCell id="LZcYpCQEfp5MSJWrEunI-2" value="especies" style="rounded=0;whiteSpace=wrap;html=1;" vertex="1" parent="1">
          <mxGeometry x="140" y="670" width="120" height="60" as="geometry" />
        </mxCell>
        <mxCell id="LZcYpCQEfp5MSJWrEunI-3" value="habitats" style="rounded=0;whiteSpace=wrap;html=1;" vertex="1" parent="1">
          <mxGeometry x="-200" y="455" width="120" height="60" as="geometry" />
        </mxCell>
        <mxCell id="LZcYpCQEfp5MSJWrEunI-45" value="" style="edgeStyle=orthogonalEdgeStyle;rounded=0;orthogonalLoop=1;jettySize=auto;html=1;" edge="1" parent="1" source="LZcYpCQEfp5MSJWrEunI-4" target="LZcYpCQEfp5MSJWrEunI-42">
          <mxGeometry relative="1" as="geometry" />
        </mxCell>
        <mxCell id="LZcYpCQEfp5MSJWrEunI-4" value="cuidador" style="rounded=0;whiteSpace=wrap;html=1;" vertex="1" parent="1">
          <mxGeometry x="350" y="330" width="120" height="60" as="geometry" />
        </mxCell>
        <mxCell id="LZcYpCQEfp5MSJWrEunI-5" value="visitantes" style="rounded=0;whiteSpace=wrap;html=1;" vertex="1" parent="1">
          <mxGeometry x="-200" y="770" width="120" height="60" as="geometry" />
        </mxCell>
        <mxCell id="LZcYpCQEfp5MSJWrEunI-6" value="nombre" style="ellipse;whiteSpace=wrap;html=1;" vertex="1" parent="1">
          <mxGeometry x="150" y="390" width="90" height="40" as="geometry" />
        </mxCell>
        <mxCell id="LZcYpCQEfp5MSJWrEunI-8" value="fechaDeNacimineto" style="ellipse;whiteSpace=wrap;html=1;" vertex="1" parent="1">
          <mxGeometry x="30" y="390" width="110" height="40" as="geometry" />
        </mxCell>
        <mxCell id="LZcYpCQEfp5MSJWrEunI-15" value="nombre" style="ellipse;whiteSpace=wrap;html=1;" vertex="1" parent="1">
          <mxGeometry x="-330" y="425" width="90" height="40" as="geometry" />
        </mxCell>
        <mxCell id="LZcYpCQEfp5MSJWrEunI-18" value="nombre" style="ellipse;whiteSpace=wrap;html=1;" vertex="1" parent="1">
          <mxGeometry x="310" y="250" width="90" height="40" as="geometry" />
        </mxCell>
        <mxCell id="LZcYpCQEfp5MSJWrEunI-19" value="fecha_contrato" style="ellipse;whiteSpace=wrap;html=1;" vertex="1" parent="1">
          <mxGeometry x="420" y="250" width="90" height="40" as="geometry" />
        </mxCell>
        <mxCell id="LZcYpCQEfp5MSJWrEunI-21" value="especialidad" style="ellipse;shape=doubleEllipse;whiteSpace=wrap;html=1;" vertex="1" parent="1">
          <mxGeometry x="527.5" y="250" width="85" height="40" as="geometry" />
        </mxCell>
        <mxCell id="LZcYpCQEfp5MSJWrEunI-22" value="nombre" style="ellipse;whiteSpace=wrap;html=1;" vertex="1" parent="1">
          <mxGeometry x="-340" y="780" width="90" height="40" as="geometry" />
        </mxCell>
        <mxCell id="LZcYpCQEfp5MSJWrEunI-23" value="fecha_visita" style="ellipse;whiteSpace=wrap;html=1;" vertex="1" parent="1">
          <mxGeometry x="-340" y="840" width="90" height="40" as="geometry" />
        </mxCell>
        <mxCell id="LZcYpCQEfp5MSJWrEunI-24" value="&lt;u&gt;animal_id&lt;/u&gt;" style="ellipse;whiteSpace=wrap;html=1;" vertex="1" parent="1">
          <mxGeometry x="250" y="390" width="90" height="40" as="geometry" />
        </mxCell>
        <mxCell id="LZcYpCQEfp5MSJWrEunI-25" value="&lt;u&gt;especie_id&lt;/u&gt;" style="ellipse;whiteSpace=wrap;html=1;" vertex="1" parent="1">
          <mxGeometry x="-10" y="770" width="90" height="40" as="geometry" />
        </mxCell>
        <mxCell id="LZcYpCQEfp5MSJWrEunI-26" value="familia" style="ellipse;shape=doubleEllipse;whiteSpace=wrap;html=1;" vertex="1" parent="1">
          <mxGeometry x="195" y="770" width="85" height="40" as="geometry" />
        </mxCell>
        <mxCell id="LZcYpCQEfp5MSJWrEunI-27" value="&lt;u&gt;habitad_id&lt;/u&gt;" style="ellipse;whiteSpace=wrap;html=1;" vertex="1" parent="1">
          <mxGeometry x="-330" y="375" width="90" height="40" as="geometry" />
        </mxCell>
        <mxCell id="LZcYpCQEfp5MSJWrEunI-28" value="&lt;u&gt;cuidadores_id&lt;/u&gt;" style="ellipse;whiteSpace=wrap;html=1;" vertex="1" parent="1">
          <mxGeometry x="200" y="250" width="90" height="40" as="geometry" />
        </mxCell>
        <mxCell id="LZcYpCQEfp5MSJWrEunI-29" value="&lt;u&gt;visitantes_id&lt;/u&gt;" style="ellipse;whiteSpace=wrap;html=1;" vertex="1" parent="1">
          <mxGeometry x="-340" y="720" width="90" height="40" as="geometry" />
        </mxCell>
        <mxCell id="LZcYpCQEfp5MSJWrEunI-38" value="" style="endArrow=none;html=1;rounded=0;entryX=0.5;entryY=1;entryDx=0;entryDy=0;exitX=0;exitY=0.5;exitDx=0;exitDy=0;" edge="1" parent="1" source="LZcYpCQEfp5MSJWrEunI-4" target="LZcYpCQEfp5MSJWrEunI-28">
          <mxGeometry width="50" height="50" relative="1" as="geometry">
            <mxPoint x="510" y="480" as="sourcePoint" />
            <mxPoint x="560" y="430" as="targetPoint" />
            <Array as="points">
              <mxPoint x="245" y="360" />
            </Array>
          </mxGeometry>
        </mxCell>
        <mxCell id="LZcYpCQEfp5MSJWrEunI-39" value="" style="endArrow=none;html=1;rounded=0;exitX=0.5;exitY=1;exitDx=0;exitDy=0;entryX=0.066;entryY=-0.026;entryDx=0;entryDy=0;entryPerimeter=0;" edge="1" parent="1" source="LZcYpCQEfp5MSJWrEunI-18" target="LZcYpCQEfp5MSJWrEunI-4">
          <mxGeometry width="50" height="50" relative="1" as="geometry">
            <mxPoint x="510" y="480" as="sourcePoint" />
            <mxPoint x="560" y="430" as="targetPoint" />
          </mxGeometry>
        </mxCell>
        <mxCell id="LZcYpCQEfp5MSJWrEunI-40" value="" style="endArrow=none;html=1;rounded=0;entryX=0.5;entryY=1;entryDx=0;entryDy=0;exitX=1;exitY=0.5;exitDx=0;exitDy=0;" edge="1" parent="1" source="LZcYpCQEfp5MSJWrEunI-4" target="LZcYpCQEfp5MSJWrEunI-21">
          <mxGeometry width="50" height="50" relative="1" as="geometry">
            <mxPoint x="510" y="480" as="sourcePoint" />
            <mxPoint x="560" y="430" as="targetPoint" />
            <Array as="points">
              <mxPoint x="570" y="360" />
            </Array>
          </mxGeometry>
        </mxCell>
        <mxCell id="LZcYpCQEfp5MSJWrEunI-41" value="" style="endArrow=none;html=1;rounded=0;entryX=0.5;entryY=1;entryDx=0;entryDy=0;exitX=0.943;exitY=0.013;exitDx=0;exitDy=0;exitPerimeter=0;" edge="1" parent="1" source="LZcYpCQEfp5MSJWrEunI-4" target="LZcYpCQEfp5MSJWrEunI-19">
          <mxGeometry width="50" height="50" relative="1" as="geometry">
            <mxPoint x="510" y="480" as="sourcePoint" />
            <mxPoint x="560" y="430" as="targetPoint" />
          </mxGeometry>
        </mxCell>
        <mxCell id="LZcYpCQEfp5MSJWrEunI-42" value="cargo" style="rhombus;whiteSpace=wrap;html=1;" vertex="1" parent="1">
          <mxGeometry x="370" y="455" width="80" height="60" as="geometry" />
        </mxCell>
        <mxCell id="LZcYpCQEfp5MSJWrEunI-43" value="" style="endArrow=none;html=1;rounded=0;exitX=0.5;exitY=1;exitDx=0;exitDy=0;entryX=0.5;entryY=0;entryDx=0;entryDy=0;" edge="1" parent="1" source="LZcYpCQEfp5MSJWrEunI-4" target="LZcYpCQEfp5MSJWrEunI-42">
          <mxGeometry width="50" height="50" relative="1" as="geometry">
            <mxPoint x="510" y="430" as="sourcePoint" />
            <mxPoint x="560" y="380" as="targetPoint" />
          </mxGeometry>
        </mxCell>
        <mxCell id="LZcYpCQEfp5MSJWrEunI-46" value="1:n" style="edgeLabel;html=1;align=center;verticalAlign=middle;resizable=0;points=[];" connectable="0" vertex="1" parent="LZcYpCQEfp5MSJWrEunI-43">
          <mxGeometry x="0.1095" y="3" relative="1" as="geometry">
            <mxPoint as="offset" />
          </mxGeometry>
        </mxCell>
        <mxCell id="LZcYpCQEfp5MSJWrEunI-44" value="" style="endArrow=none;html=1;rounded=0;exitX=1;exitY=0.5;exitDx=0;exitDy=0;entryX=0;entryY=0.5;entryDx=0;entryDy=0;" edge="1" parent="1" source="LZcYpCQEfp5MSJWrEunI-1" target="LZcYpCQEfp5MSJWrEunI-42">
          <mxGeometry width="50" height="50" relative="1" as="geometry">
            <mxPoint x="510" y="610" as="sourcePoint" />
            <mxPoint x="560" y="560" as="targetPoint" />
          </mxGeometry>
        </mxCell>
        <mxCell id="LZcYpCQEfp5MSJWrEunI-47" value="1:1" style="edgeLabel;html=1;align=center;verticalAlign=middle;resizable=0;points=[];" connectable="0" vertex="1" parent="LZcYpCQEfp5MSJWrEunI-44">
          <mxGeometry x="0.0845" relative="1" as="geometry">
            <mxPoint as="offset" />
          </mxGeometry>
        </mxCell>
        <mxCell id="LZcYpCQEfp5MSJWrEunI-48" value="1:N" style="text;html=1;align=center;verticalAlign=middle;resizable=0;points=[];autosize=1;strokeColor=none;fillColor=none;" vertex="1" parent="1">
          <mxGeometry x="440" y="468" width="40" height="30" as="geometry" />
        </mxCell>
        <mxCell id="LZcYpCQEfp5MSJWrEunI-51" value="pertenece" style="rhombus;whiteSpace=wrap;html=1;" vertex="1" parent="1">
          <mxGeometry x="160" y="560" width="80" height="60" as="geometry" />
        </mxCell>
        <mxCell id="LZcYpCQEfp5MSJWrEunI-52" value="" style="endArrow=none;html=1;rounded=0;entryX=0.5;entryY=1;entryDx=0;entryDy=0;exitX=0.5;exitY=0;exitDx=0;exitDy=0;" edge="1" parent="1" source="LZcYpCQEfp5MSJWrEunI-51" target="LZcYpCQEfp5MSJWrEunI-1">
          <mxGeometry width="50" height="50" relative="1" as="geometry">
            <mxPoint x="630" y="630" as="sourcePoint" />
            <mxPoint x="680" y="580" as="targetPoint" />
          </mxGeometry>
        </mxCell>
        <mxCell id="LZcYpCQEfp5MSJWrEunI-82" value="1:1" style="edgeLabel;html=1;align=center;verticalAlign=middle;resizable=0;points=[];" connectable="0" vertex="1" parent="LZcYpCQEfp5MSJWrEunI-52">
          <mxGeometry x="-0.0765" y="-3" relative="1" as="geometry">
            <mxPoint as="offset" />
          </mxGeometry>
        </mxCell>
        <mxCell id="LZcYpCQEfp5MSJWrEunI-53" value="" style="endArrow=none;html=1;rounded=0;exitX=0.5;exitY=1;exitDx=0;exitDy=0;entryX=0.5;entryY=0;entryDx=0;entryDy=0;" edge="1" parent="1" source="LZcYpCQEfp5MSJWrEunI-51" target="LZcYpCQEfp5MSJWrEunI-2">
          <mxGeometry width="50" height="50" relative="1" as="geometry">
            <mxPoint x="630" y="700" as="sourcePoint" />
            <mxPoint x="680" y="650" as="targetPoint" />
          </mxGeometry>
        </mxCell>
        <mxCell id="LZcYpCQEfp5MSJWrEunI-83" value="n:1" style="edgeLabel;html=1;align=center;verticalAlign=middle;resizable=0;points=[];" connectable="0" vertex="1" parent="LZcYpCQEfp5MSJWrEunI-53">
          <mxGeometry x="-0.2311" y="-2" relative="1" as="geometry">
            <mxPoint as="offset" />
          </mxGeometry>
        </mxCell>
        <mxCell id="LZcYpCQEfp5MSJWrEunI-54" value="nombre" style="ellipse;whiteSpace=wrap;html=1;" vertex="1" parent="1">
          <mxGeometry x="90" y="770" width="90" height="40" as="geometry" />
        </mxCell>
        <mxCell id="LZcYpCQEfp5MSJWrEunI-55" value="estado_conservacion" style="ellipse;shape=doubleEllipse;whiteSpace=wrap;html=1;" vertex="1" parent="1">
          <mxGeometry x="305" y="770" width="120" height="40" as="geometry" />
        </mxCell>
        <mxCell id="LZcYpCQEfp5MSJWrEunI-56" value="vive" style="rhombus;whiteSpace=wrap;html=1;" vertex="1" parent="1">
          <mxGeometry x="-10" y="453" width="80" height="60" as="geometry" />
        </mxCell>
        <mxCell id="LZcYpCQEfp5MSJWrEunI-57" value="" style="endArrow=none;html=1;rounded=0;exitX=1;exitY=0.5;exitDx=0;exitDy=0;entryX=0;entryY=0.5;entryDx=0;entryDy=0;" edge="1" parent="1" source="LZcYpCQEfp5MSJWrEunI-56" target="LZcYpCQEfp5MSJWrEunI-1">
          <mxGeometry width="50" height="50" relative="1" as="geometry">
            <mxPoint x="240" y="630" as="sourcePoint" />
            <mxPoint x="290" y="580" as="targetPoint" />
          </mxGeometry>
        </mxCell>
        <mxCell id="LZcYpCQEfp5MSJWrEunI-80" value="1:1" style="edgeLabel;html=1;align=center;verticalAlign=middle;resizable=0;points=[];" connectable="0" vertex="1" parent="LZcYpCQEfp5MSJWrEunI-57">
          <mxGeometry x="-0.2147" y="1" relative="1" as="geometry">
            <mxPoint as="offset" />
          </mxGeometry>
        </mxCell>
        <mxCell id="LZcYpCQEfp5MSJWrEunI-58" value="hubicacion" style="ellipse;shape=doubleEllipse;whiteSpace=wrap;html=1;" vertex="1" parent="1">
          <mxGeometry x="-330" y="490" width="90" height="50" as="geometry" />
        </mxCell>
        <mxCell id="LZcYpCQEfp5MSJWrEunI-59" value="clima" style="ellipse;shape=doubleEllipse;whiteSpace=wrap;html=1;" vertex="1" parent="1">
          <mxGeometry x="-330" y="545" width="90" height="50" as="geometry" />
        </mxCell>
        <mxCell id="LZcYpCQEfp5MSJWrEunI-60" value="1:n" style="endArrow=none;html=1;rounded=0;exitX=1;exitY=0.5;exitDx=0;exitDy=0;entryX=0;entryY=0.5;entryDx=0;entryDy=0;" edge="1" parent="1" source="LZcYpCQEfp5MSJWrEunI-3" target="LZcYpCQEfp5MSJWrEunI-56">
          <mxGeometry width="50" height="50" relative="1" as="geometry">
            <mxPoint x="-20" y="430" as="sourcePoint" />
            <mxPoint x="30" y="380" as="targetPoint" />
          </mxGeometry>
        </mxCell>
        <mxCell id="LZcYpCQEfp5MSJWrEunI-61" value="visitar" style="rhombus;whiteSpace=wrap;html=1;" vertex="1" parent="1">
          <mxGeometry x="-180" y="620" width="80" height="60" as="geometry" />
        </mxCell>
        <mxCell id="LZcYpCQEfp5MSJWrEunI-62" value="" style="endArrow=none;html=1;rounded=0;entryX=0.5;entryY=1;entryDx=0;entryDy=0;exitX=0.5;exitY=0;exitDx=0;exitDy=0;" edge="1" parent="1" source="LZcYpCQEfp5MSJWrEunI-61" target="LZcYpCQEfp5MSJWrEunI-3">
          <mxGeometry width="50" height="50" relative="1" as="geometry">
            <mxPoint x="260" y="630" as="sourcePoint" />
            <mxPoint x="310" y="580" as="targetPoint" />
          </mxGeometry>
        </mxCell>
        <mxCell id="LZcYpCQEfp5MSJWrEunI-85" value="1:n" style="edgeLabel;html=1;align=center;verticalAlign=middle;resizable=0;points=[];" connectable="0" vertex="1" parent="LZcYpCQEfp5MSJWrEunI-62">
          <mxGeometry x="-0.1386" y="-4" relative="1" as="geometry">
            <mxPoint as="offset" />
          </mxGeometry>
        </mxCell>
        <mxCell id="LZcYpCQEfp5MSJWrEunI-63" value="" style="endArrow=none;html=1;rounded=0;exitX=1;exitY=0.5;exitDx=0;exitDy=0;entryX=0.5;entryY=0;entryDx=0;entryDy=0;" edge="1" parent="1" source="LZcYpCQEfp5MSJWrEunI-27" target="LZcYpCQEfp5MSJWrEunI-3">
          <mxGeometry width="50" height="50" relative="1" as="geometry">
            <mxPoint x="190" y="610" as="sourcePoint" />
            <mxPoint x="240" y="560" as="targetPoint" />
            <Array as="points">
              <mxPoint x="-140" y="400" />
            </Array>
          </mxGeometry>
        </mxCell>
        <mxCell id="LZcYpCQEfp5MSJWrEunI-64" value="" style="endArrow=none;html=1;rounded=0;exitX=1;exitY=0.5;exitDx=0;exitDy=0;entryX=0.25;entryY=0;entryDx=0;entryDy=0;" edge="1" parent="1" source="LZcYpCQEfp5MSJWrEunI-15" target="LZcYpCQEfp5MSJWrEunI-3">
          <mxGeometry width="50" height="50" relative="1" as="geometry">
            <mxPoint x="190" y="610" as="sourcePoint" />
            <mxPoint x="-180" y="445" as="targetPoint" />
            <Array as="points">
              <mxPoint x="-170" y="440" />
            </Array>
          </mxGeometry>
        </mxCell>
        <mxCell id="LZcYpCQEfp5MSJWrEunI-65" value="" style="endArrow=none;html=1;rounded=0;exitX=1;exitY=0.5;exitDx=0;exitDy=0;entryX=0;entryY=1;entryDx=0;entryDy=0;" edge="1" parent="1" source="LZcYpCQEfp5MSJWrEunI-58" target="LZcYpCQEfp5MSJWrEunI-3">
          <mxGeometry width="50" height="50" relative="1" as="geometry">
            <mxPoint x="190" y="610" as="sourcePoint" />
            <mxPoint x="240" y="560" as="targetPoint" />
          </mxGeometry>
        </mxCell>
        <mxCell id="LZcYpCQEfp5MSJWrEunI-66" value="" style="endArrow=none;html=1;rounded=0;exitX=1;exitY=0.5;exitDx=0;exitDy=0;entryX=0.25;entryY=1;entryDx=0;entryDy=0;" edge="1" parent="1" source="LZcYpCQEfp5MSJWrEunI-59" target="LZcYpCQEfp5MSJWrEunI-3">
          <mxGeometry width="50" height="50" relative="1" as="geometry">
            <mxPoint x="190" y="610" as="sourcePoint" />
            <mxPoint x="240" y="560" as="targetPoint" />
            <Array as="points">
              <mxPoint x="-170" y="570" />
            </Array>
          </mxGeometry>
        </mxCell>
        <mxCell id="LZcYpCQEfp5MSJWrEunI-67" value="" style="endArrow=none;html=1;rounded=0;exitX=0.5;exitY=1;exitDx=0;exitDy=0;entryX=0.5;entryY=0;entryDx=0;entryDy=0;" edge="1" parent="1" source="LZcYpCQEfp5MSJWrEunI-61" target="LZcYpCQEfp5MSJWrEunI-5">
          <mxGeometry width="50" height="50" relative="1" as="geometry">
            <mxPoint x="190" y="710" as="sourcePoint" />
            <mxPoint x="240" y="660" as="targetPoint" />
          </mxGeometry>
        </mxCell>
        <mxCell id="LZcYpCQEfp5MSJWrEunI-86" value="n:1" style="edgeLabel;html=1;align=center;verticalAlign=middle;resizable=0;points=[];" connectable="0" vertex="1" parent="LZcYpCQEfp5MSJWrEunI-67">
          <mxGeometry x="-0.0049" y="2" relative="1" as="geometry">
            <mxPoint as="offset" />
          </mxGeometry>
        </mxCell>
        <mxCell id="LZcYpCQEfp5MSJWrEunI-68" value="" style="endArrow=none;html=1;rounded=0;exitX=0.5;exitY=1;exitDx=0;exitDy=0;entryX=0;entryY=0;entryDx=0;entryDy=0;" edge="1" parent="1" source="LZcYpCQEfp5MSJWrEunI-8" target="LZcYpCQEfp5MSJWrEunI-1">
          <mxGeometry width="50" height="50" relative="1" as="geometry">
            <mxPoint x="190" y="500" as="sourcePoint" />
            <mxPoint x="240" y="450" as="targetPoint" />
          </mxGeometry>
        </mxCell>
        <mxCell id="LZcYpCQEfp5MSJWrEunI-69" value="" style="endArrow=none;html=1;rounded=0;entryX=0.5;entryY=1;entryDx=0;entryDy=0;exitX=1;exitY=0;exitDx=0;exitDy=0;" edge="1" parent="1" source="LZcYpCQEfp5MSJWrEunI-1" target="LZcYpCQEfp5MSJWrEunI-24">
          <mxGeometry width="50" height="50" relative="1" as="geometry">
            <mxPoint x="190" y="500" as="sourcePoint" />
            <mxPoint x="240" y="450" as="targetPoint" />
          </mxGeometry>
        </mxCell>
        <mxCell id="LZcYpCQEfp5MSJWrEunI-70" value="" style="endArrow=none;html=1;rounded=0;entryX=0.5;entryY=1;entryDx=0;entryDy=0;exitX=0.5;exitY=0;exitDx=0;exitDy=0;" edge="1" parent="1" source="LZcYpCQEfp5MSJWrEunI-1" target="LZcYpCQEfp5MSJWrEunI-6">
          <mxGeometry width="50" height="50" relative="1" as="geometry">
            <mxPoint x="190" y="500" as="sourcePoint" />
            <mxPoint x="240" y="450" as="targetPoint" />
          </mxGeometry>
        </mxCell>
        <mxCell id="LZcYpCQEfp5MSJWrEunI-72" value="" style="endArrow=none;html=1;rounded=0;exitX=0.5;exitY=0;exitDx=0;exitDy=0;entryX=0;entryY=1;entryDx=0;entryDy=0;" edge="1" parent="1" source="LZcYpCQEfp5MSJWrEunI-25" target="LZcYpCQEfp5MSJWrEunI-2">
          <mxGeometry width="50" height="50" relative="1" as="geometry">
            <mxPoint x="190" y="740" as="sourcePoint" />
            <mxPoint x="240" y="690" as="targetPoint" />
          </mxGeometry>
        </mxCell>
        <mxCell id="LZcYpCQEfp5MSJWrEunI-73" value="" style="endArrow=none;html=1;rounded=0;exitX=0.5;exitY=0;exitDx=0;exitDy=0;entryX=0.25;entryY=1;entryDx=0;entryDy=0;" edge="1" parent="1" source="LZcYpCQEfp5MSJWrEunI-54" target="LZcYpCQEfp5MSJWrEunI-2">
          <mxGeometry width="50" height="50" relative="1" as="geometry">
            <mxPoint x="190" y="740" as="sourcePoint" />
            <mxPoint x="240" y="690" as="targetPoint" />
          </mxGeometry>
        </mxCell>
        <mxCell id="LZcYpCQEfp5MSJWrEunI-74" value="" style="endArrow=none;html=1;rounded=0;exitX=0.5;exitY=0;exitDx=0;exitDy=0;entryX=0.5;entryY=1;entryDx=0;entryDy=0;" edge="1" parent="1" source="LZcYpCQEfp5MSJWrEunI-26" target="LZcYpCQEfp5MSJWrEunI-2">
          <mxGeometry width="50" height="50" relative="1" as="geometry">
            <mxPoint x="190" y="740" as="sourcePoint" />
            <mxPoint x="240" y="690" as="targetPoint" />
          </mxGeometry>
        </mxCell>
        <mxCell id="LZcYpCQEfp5MSJWrEunI-75" value="" style="endArrow=none;html=1;rounded=0;exitX=0.5;exitY=0;exitDx=0;exitDy=0;entryX=1;entryY=1;entryDx=0;entryDy=0;" edge="1" parent="1" source="LZcYpCQEfp5MSJWrEunI-55" target="LZcYpCQEfp5MSJWrEunI-2">
          <mxGeometry width="50" height="50" relative="1" as="geometry">
            <mxPoint x="190" y="740" as="sourcePoint" />
            <mxPoint x="240" y="690" as="targetPoint" />
          </mxGeometry>
        </mxCell>
        <mxCell id="LZcYpCQEfp5MSJWrEunI-76" value="" style="endArrow=none;html=1;rounded=0;exitX=1;exitY=0.5;exitDx=0;exitDy=0;entryX=0;entryY=0;entryDx=0;entryDy=0;" edge="1" parent="1" source="LZcYpCQEfp5MSJWrEunI-29" target="LZcYpCQEfp5MSJWrEunI-5">
          <mxGeometry width="50" height="50" relative="1" as="geometry">
            <mxPoint x="190" y="740" as="sourcePoint" />
            <mxPoint x="240" y="690" as="targetPoint" />
          </mxGeometry>
        </mxCell>
        <mxCell id="LZcYpCQEfp5MSJWrEunI-77" value="" style="endArrow=none;html=1;rounded=0;exitX=1;exitY=0.5;exitDx=0;exitDy=0;entryX=0;entryY=0.5;entryDx=0;entryDy=0;" edge="1" parent="1" source="LZcYpCQEfp5MSJWrEunI-22" target="LZcYpCQEfp5MSJWrEunI-5">
          <mxGeometry width="50" height="50" relative="1" as="geometry">
            <mxPoint x="190" y="740" as="sourcePoint" />
            <mxPoint x="240" y="690" as="targetPoint" />
          </mxGeometry>
        </mxCell>
        <mxCell id="LZcYpCQEfp5MSJWrEunI-78" value="" style="endArrow=none;html=1;rounded=0;exitX=1;exitY=0.5;exitDx=0;exitDy=0;entryX=0;entryY=1;entryDx=0;entryDy=0;" edge="1" parent="1" source="LZcYpCQEfp5MSJWrEunI-23" target="LZcYpCQEfp5MSJWrEunI-5">
          <mxGeometry width="50" height="50" relative="1" as="geometry">
            <mxPoint x="190" y="740" as="sourcePoint" />
            <mxPoint x="240" y="690" as="targetPoint" />
          </mxGeometry>
        </mxCell>
        <mxCell id="LZcYpCQEfp5MSJWrEunI-81" value="1:N" style="text;html=1;align=center;verticalAlign=middle;resizable=0;points=[];autosize=1;strokeColor=none;fillColor=none;" vertex="1" parent="1">
          <mxGeometry x="10" y="430" width="40" height="30" as="geometry" />
        </mxCell>
        <mxCell id="LZcYpCQEfp5MSJWrEunI-84" value="1:N" style="text;html=1;align=center;verticalAlign=middle;resizable=0;points=[];autosize=1;strokeColor=none;fillColor=none;" vertex="1" parent="1">
          <mxGeometry x="230" y="578" width="40" height="30" as="geometry" />
        </mxCell>
        <mxCell id="LZcYpCQEfp5MSJWrEunI-87" value="N:M" style="text;html=1;align=center;verticalAlign=middle;resizable=0;points=[];autosize=1;strokeColor=none;fillColor=none;" vertex="1" parent="1">
          <mxGeometry x="-110" y="635" width="50" height="30" as="geometry" />
        </mxCell>
      </root>
    </mxGraphModel>
  </diagram>
</mxfile>
